<svg id="Layer_1" enable-background="new 0 0 64 64" height="512" viewBox="0 0 64 64" width="512" xmlns="http://www.w3.org/2000/svg">
    <path fill="#ffffff" d="m44.8 29.2c1.2-7.1-3.6-13.8-10.7-15s-13.8 3.6-15 10.7c-.2 1.4-.2 2.9 0 4.3l2-.3c-1-6 3-11.7 9-12.7s11.7 3 12.7 9c.2 1.2.2 2.4 0 3.6z"/>
    <path fill="#ffffff" d="m51 27c0-10.5-8.5-19-19-19s-19 8.5-19 19c0 1.8.3 3.5.7 5.2l1.9-.6c-2.6-9 2.6-18.4 11.6-21s18.4 2.6 21 11.6c.9 3.1.9 6.3 0 9.4l1.9.6c.7-1.6.9-3.4.9-5.2z"/>
    <path fill="#ffffff" d="m10.3 34.7c-4.2-12 2.1-25.1 14-29.3s25.1 2.1 29.3 14c1.7 4.9 1.7 10.3 0 15.3l1.9.7c4.6-13-2.2-27.3-15.3-31.9s-27.2 2.2-31.8 15.2c-1.9 5.4-1.9 11.2 0 16.6z"/>
    <path fill="#ffffff" d="m20 34h10c1.7 0 3-1.3 3-3v-5.2c1.6-.6 2.4-2.3 1.8-3.8s-2.3-2.4-3.8-1.8c-1.6.6-2.4 2.3-1.8 3.8.3.9 1 1.5 1.8 1.8v5.2c0 .6-.4 1-1 1h-10c-2.8 0-5 2.2-5 5v5c0 2.8 2.2 5 5 5h4c.6 0 1 .4 1 1v7c0 .6-.4 1-1 1h-2c-.6 0-1-.4-1-1v-2c0-1.7-1.3-3-3-3s-3 1.3-3 3v4c0 2.8 2.2 5 5 5h6c2.8 0 5-2.2 5-5v-11c0-2.8-2.2-5-5-5h-4c-.6 0-1-.4-1-1v-1c0-.6.4-1 1-1h9v-2h-9c-1.7 0-3 1.3-3 3v1c0 1.7 1.3 3 3 3h4c1.7 0 3 1.3 3 3v11c0 1.7-1.3 3-3 3h-6c-1.7 0-3-1.3-3-3v-4c0-.6.4-1 1-1s1 .4 1 1v2c0 1.7 1.3 3 3 3h2c1.7 0 3-1.3 3-3v-7c0-1.7-1.3-3-3-3h-4c-1.7 0-3-1.3-3-3v-5c0-1.7 1.3-3 3-3zm12-12c.6 0 1 .4 1 1s-.4 1-1 1-1-.4-1-1 .4-1 1-1z"/>
    <path fill="#ffffff" d="m46 44c1.7 0 3-1.3 3-3v-4c0-2.8-2.2-5-5-5h-6c-2.8 0-5 2.2-5 5v20c0 2.8 2.2 5 5 5h6c2.8 0 5-2.2 5-5v-7c0-1.7-1.3-3-3-3h-2c-1.7 0-3 1.3-3 3 0 1.3.8 2.4 2 2.8v2.2c0 .6-.4 1-1 1h-2c-.6 0-1-.4-1-1v-16c0-.6.4-1 1-1h2c.6 0 1 .4 1 1v2c0 1.7 1.3 3 3 3zm-4-8h-2c-1.7 0-3 1.3-3 3v16c0 1.7 1.3 3 3 3h2c1.7 0 3-1.3 3-3v-4h-1c-.6 0-1-.4-1-1s.4-1 1-1h2c.6 0 1 .4 1 1v7c0 1.7-1.3 3-3 3h-6c-1.7 0-3-1.3-3-3v-20c0-1.7 1.3-3 3-3h6c1.7 0 3 1.3 3 3v4c0 .6-.4 1-1 1s-1-.4-1-1v-2c0-1.7-1.3-3-3-3z"/>
</svg>